<svg width="15" height="16" viewBox="0 0 15 16" fill="none" xmlns="http://www.w3.org/2000/svg">
<path d="M1.98853 6.86914C1.43624 6.86914 0.988525 7.31686 0.988525 7.86914C0.988525 8.42143 1.43624 8.86914 1.98853 8.86914V6.86914ZM13.7185 8.57625C14.109 8.18572 14.109 7.55256 13.7185 7.16203L7.35451 0.798073C6.96399 0.407548 6.33082 0.407548 5.9403 0.798073C5.54977 1.1886 5.54977 1.82176 5.9403 2.21229L11.5972 7.86914L5.9403 13.526C5.54977 13.9165 5.54977 14.5497 5.9403 14.9402C6.33082 15.3307 6.96399 15.3307 7.35451 14.9402L13.7185 8.57625ZM1.98853 8.86914H13.0114V6.86914H1.98853V8.86914Z" fill="#115850"/>
</svg>
