<svg width="43" height="41" viewBox="0 0 43 41" fill="none" xmlns="http://www.w3.org/2000/svg">
<path d="M32.1892 0.669556C32.1892 0.669556 40.7089 9.80179 36.3873 17.0593C32.0657 24.3167 19.1008 9.79376 12.9271 14.012C6.75334 18.2302 7.12376 33.8984 12.0628 40.3304" stroke="#115850" stroke-linecap="round" stroke-linejoin="round"/>
<path d="M42.314 9.2217C42.314 9.2217 41.3179 9.32454 36.8152 8.26396C32.3125 7.20338 26.8796 5.7566 24.7805 7.68493C22.6815 9.61326 22.7605 13.2889 22.9679 15.7298C23.1754 18.1707 24.5336 24.9569 19.4711 26.987C14.4086 29.0171 12.0626 27.3298 7.49404 27.6913C2.92547 28.0529 0.455972 32.3113 0.702922 36.6902" stroke="#115850" stroke-linecap="round" stroke-linejoin="round"/>
<path d="M29.4522 6.80699L31.6401 9.61324" stroke="#115850" stroke-linecap="round" stroke-linejoin="round"/>
<path d="M36.8535 14.9697L34.4115 12.0504" stroke="#115850" stroke-linecap="round" stroke-linejoin="round"/>
<path d="M31.86 14.2466L34.9331 18.2639" stroke="#115850" stroke-linecap="round" stroke-linejoin="round"/>
<path d="M25.4117 7.60458L28.2104 11.2202" stroke="#115850" stroke-linecap="round" stroke-linejoin="round"/>
<path d="M27.7168 14.8358L30.8174 18.6925" stroke="#115850" stroke-linecap="round" stroke-linejoin="round"/>
<path d="M23.2781 10.2614L25.0825 12.5057" stroke="#115850" stroke-linecap="round" stroke-linejoin="round"/>
<path d="M22.75 21.0761L20.8842 18.1568" stroke="#115850" stroke-linecap="round" stroke-linejoin="round"/>
<path d="M18.5244 15.7196L16.7952 13.3146" stroke="#115850" stroke-linecap="round" stroke-linejoin="round"/>
<path d="M16.3018 18.7728L13.1545 13.8668" stroke="#115850" stroke-linecap="round" stroke-linejoin="round"/>
<path d="M13.2563 21.4778L10.5125 16.9784" stroke="#115850" stroke-linecap="round" stroke-linejoin="round"/>
<path d="M18.2501 21.7146L21.186 25.6559" stroke="#115850" stroke-linecap="round" stroke-linejoin="round"/>
<path d="M15.1768 24.1293L17.125 27.1825" stroke="#115850" stroke-linecap="round" stroke-linejoin="round"/>
<path d="M12.1313 27.5306L11.0338 25.6559" stroke="#115850" stroke-linecap="round" stroke-linejoin="round"/>
<path d="M9.16804 21.7146L9.854 23.0044" stroke="#115850" stroke-linecap="round" stroke-linejoin="round"/>
<path d="M3.62532 29.6732L4.94238 30.932" stroke="#115850" stroke-linecap="round" stroke-linejoin="round"/>
<path d="M9.12939 33.6311L7.02758 32.2979" stroke="#115850" stroke-linecap="round" stroke-linejoin="round"/>
<path d="M0.841236 34.2953L3.43311 35.11" stroke="#115850" stroke-linecap="round" stroke-linejoin="round"/>
<path d="M9.854 37.2526L6.89061 36.2349" stroke="#115850" stroke-linecap="round" stroke-linejoin="round"/>
<path d="M35.3567 5.10472L38.6099 4.79243" stroke="#115850" stroke-linecap="round" stroke-linejoin="round"/>
<path d="M40.0367 6.73897L40.4482 8.80978" stroke="#115850" stroke-linecap="round" stroke-linejoin="round"/>
</svg>
