<svg width="123" height="102" viewBox="0 0 123 102" fill="none" xmlns="http://www.w3.org/2000/svg">
<g clip-path="url(#clip0_16_1117)">
<path d="M30.834 58.5651V76.8111C30.834 76.8111 34.0158 94.2121 62.3772 94.2121C90.7387 94.2121 94.6472 76.8111 94.6472 76.8111V51.6469" fill="white"/>
<path d="M30.834 58.5651V76.8111C30.834 76.8111 34.0158 94.2121 62.3772 94.2121C90.7387 94.2121 94.6472 76.8111 94.6472 76.8111V51.6469" stroke="#115850" stroke-miterlimit="10" stroke-linecap="round"/>
<path d="M18.0538 40.2399L0.877441 40.0462V43.1532L70.815 77.9113L122.185 37.5201V32.4679L61.5355 27.8118L18.0538 40.2399Z" fill="white" stroke="#115850" stroke-miterlimit="10" stroke-linecap="round"/>
<path d="M57.8042 1.0105L0.877441 40.0462L71.1606 74.0298L122.185 32.4679L57.8042 1.0105Z" fill="white" stroke="#115850" stroke-miterlimit="10" stroke-linecap="round"/>
<path d="M67.6419 37.2737L98.4761 51.779V56.1622V97.68L96.9871 99.9861L97.1555 52.8616L66.8442 38.1979L67.6419 37.2737Z" fill="white" stroke="#115850" stroke-miterlimit="10" stroke-linecap="round"/>
<path d="M57.8306 33.8938V36.6136C57.8306 36.6136 58.2826 39.2453 62.5191 39.3245C66.7556 39.4037 67.633 37.2737 67.633 37.2737V33.7442" fill="white"/>
<path d="M57.8306 33.8938V36.6136C57.8306 36.6136 58.2826 39.2453 62.5191 39.3245C66.7556 39.4037 67.633 37.2737 67.633 37.2737V33.7442" stroke="#115850" stroke-miterlimit="10" stroke-linecap="round"/>
<path d="M67.6423 33.7442C67.6423 35.5486 65.4443 37.0184 62.7411 37.0184C60.0379 37.0184 57.8398 35.5486 57.8398 33.7442C57.8398 31.9398 60.0379 30.4699 62.7411 30.4699C65.4443 30.4699 67.6423 31.9398 67.6423 33.7442Z" fill="white" stroke="#115850" stroke-miterlimit="10" stroke-linecap="round"/>
</g>
<defs>
<clipPath id="clip0_16_1117">
<rect width="123" height="101" fill="white" transform="translate(0 0.5)"/>
</clipPath>
</defs>
</svg>
