<svg width="125" height="88" viewBox="0 0 125 88" fill="none" xmlns="http://www.w3.org/2000/svg">
<g clip-path="url(#clip0_16_1128)">
<path d="M68.0199 15.95C68.0199 15.95 62.9099 0.0800001 41.9499 1.29C20.9899 2.5 11.7799 36.77 30.8199 54.84C50.4399 73.47 55.2299 79.31 58.8099 82.72C66.1199 89.69 70.5199 86.67 74.1999 84.38C77.1799 82.53 82.8799 77.07 96.3199 61.5C109.76 45.94 119.73 31.93 111.88 16.12C101.17 -5.45 73.9999 -2.58 67.9999 15.93L68.0199 15.95Z" fill="white" stroke="#115850" stroke-linecap="round" stroke-linejoin="bevel"/>
<path d="M18.9801 32.74H22.2201L23.3201 36.25L18.3301 35.88L18.9801 32.74Z" fill="white"/>
<path d="M111.89 32.74H115.12L115.76 36.02H111.67L111.89 32.74Z" fill="white"/>
<path d="M6.91992 32.54H32.1699L42.5199 45.55C43.7399 46.96 44.7699 45.86 45.2099 44.52L53.7799 23.28C54.3699 21.5 57.6199 21.53 58.1799 23.33L64.8799 43.11C65.3699 44.7 65.9599 45.89 66.5199 44.33L75.3399 22.94C75.9599 21.2 78.4399 21.25 78.9899 23.01L86.5299 42.5C87.0299 44.1 88.3999 43.91 88.9199 42.31L92.7599 32.55H121.73" fill="white"/>
<path d="M6.91992 32.54H32.1699L42.5199 45.55C43.7399 46.96 44.7699 45.86 45.2099 44.52L53.7799 23.28C54.3699 21.5 57.6199 21.53 58.1799 23.33L64.8799 43.11C65.3699 44.7 65.9599 45.89 66.5199 44.33L75.3399 22.94C75.9599 21.2 78.4399 21.25 78.9899 23.01L86.5299 42.5C87.0299 44.1 88.3999 43.91 88.9199 42.31L92.7599 32.55H121.73" stroke="#115850" stroke-linecap="round" stroke-linejoin="bevel"/>
<path d="M0.640137 35.88H30.7601L40.5201 49.32C42.5501 51.89 46.6101 51.26 47.7701 48.2L55.0501 29.02C55.2501 28.48 56.0201 28.5 56.2001 29.05L61.9201 46.69C63.1501 50.5 68.5001 50.61 69.8901 46.85L76.5301 28.92C76.7301 28.38 77.5101 28.39 77.6801 28.94L82.9401 45.2C84.1601 48.98 89.9601 49.14 91.4001 45.44L94.5901 36.01H124.36" stroke="#115850" stroke-linecap="round" stroke-linejoin="bevel"/>
</g>
<defs>
<clipPath id="clip0_16_1128">
<rect width="124.72" height="87.05" fill="white" transform="translate(0.140137 0.5)"/>
</clipPath>
</defs>
</svg>
