<svg width="130" height="22" viewBox="0 0 130 22" fill="none" xmlns="http://www.w3.org/2000/svg">
<path d="M0 10.1703C0.208219 9.2953 0.33599 8.39314 0.62939 7.54085C1.46686 5.128 3.20752 3.0978 5.51548 1.84202C7.82344 0.586244 10.5351 0.193882 13.1273 0.740651C14.6151 1.01831 16.0238 1.59764 17.2587 2.43976C18.4936 3.28188 19.5262 4.36731 20.2872 5.6232C20.3487 5.7184 20.4055 5.82267 20.4575 5.9224C20.4575 5.94507 20.4575 5.97681 20.4575 6.04481C19.2981 6.04481 18.1387 6.04481 16.9793 6.04481C16.8279 6.04481 16.6575 5.85894 16.5345 5.732C15.5678 4.65973 14.3022 3.87347 12.8859 3.46527C11.0554 3.01737 9.11751 3.21967 7.43066 4.03475C5.74381 4.84983 4.42213 6.22254 3.71009 7.899C1.96862 11.8658 4.04608 16.7755 8.22466 18.326C11.2012 19.4185 13.8702 18.7068 16.137 16.6033C16.2925 16.4386 16.4847 16.3095 16.6993 16.2256C16.9139 16.1416 17.1454 16.1049 17.3768 16.1182C18.3611 16.1544 19.3455 16.1182 20.4007 16.1182C19.7583 17.2419 18.9029 18.2412 17.8785 19.0649C11.7738 23.8885 2.45604 21.3317 0.288668 13.2893C0.165629 12.8359 0.10411 12.3826 0.0094645 11.902L0 10.1703Z" fill="white"/>
<path d="M55.3056 0.908562H58.3768V21.1006C57.3783 21.1006 56.3798 21.1006 55.3813 21.1006C55.2536 21.1006 55.1021 20.9148 55.0169 20.7833C52.4931 17.0084 49.9692 13.2305 47.4453 9.44962C46.6598 8.26789 45.8711 7.08466 45.0792 5.89991C45.0035 5.78657 44.9183 5.67777 44.7669 5.47376V21.0689H41.6909V0.885895C42.7462 0.885895 43.792 0.885895 44.8331 0.885895C44.9751 0.885895 45.1407 1.0763 45.2354 1.22137C48.3587 5.89084 51.4788 10.5618 54.5958 15.2343C54.8046 15.5556 55.0421 15.859 55.3056 16.141V0.908562Z" fill="white"/>
<path d="M79.3887 21.1006C78.3666 21.1006 77.3964 21.1006 76.4263 21.1006C76.2844 21.1006 76.1045 20.9238 76.0146 20.7833C73.6927 17.3258 71.377 13.8622 69.0677 10.3926L66.0958 5.94071L65.7598 5.4511V21.0689H62.7075V0.885895C63.7723 0.885895 64.8323 0.885895 65.8876 0.885895C66.0106 0.885895 66.1573 1.08083 66.2473 1.21684C69.2033 5.63244 72.1452 10.045 75.0729 14.4546C75.4558 15.0537 75.8778 15.6291 76.3364 16.1773V0.913096H79.3887V21.1006Z" fill="white"/>
<path d="M20.4009 21.1006C20.8741 19.9445 21.2953 18.8338 21.7259 17.7503C23.8933 12.2799 26.0591 6.80503 28.2233 1.32557C28.3511 1.0037 28.4978 0.872228 28.8858 0.872228C29.4989 0.906224 30.1136 0.906224 30.7267 0.872228C30.8638 0.85094 31.0042 0.881623 31.1182 0.957779C31.2321 1.03393 31.3106 1.14958 31.3371 1.28024C33.2489 6.14314 35.1639 11.0045 37.0821 15.8644C37.7683 17.5871 38.4497 19.3098 39.1595 21.1006C38.09 21.1006 37.0631 21.1006 36.0457 21.1006C35.9369 21.1006 35.7996 20.883 35.7428 20.7424C35.0519 19.0061 34.361 17.2652 33.6938 15.5199C33.6697 15.404 33.5993 15.3017 33.4976 15.2349C33.396 15.168 33.2711 15.1417 33.1496 15.1617C30.8876 15.1617 28.6271 15.1617 26.3683 15.1617C26.2467 15.1417 26.1218 15.168 26.0202 15.2349C25.9185 15.3017 25.8482 15.404 25.824 15.5199C25.1615 17.2516 24.4612 18.9744 23.8034 20.7107C23.7737 20.8464 23.6897 20.9656 23.5694 21.0427C23.4491 21.1198 23.3021 21.1487 23.1598 21.1232C22.2749 21.087 21.3805 21.1006 20.4009 21.1006ZM32.4965 12.4144C31.6021 9.83943 30.7267 7.30522 29.8465 4.76648H29.7518C28.8621 7.31429 27.9772 9.86663 27.0781 12.4144H32.4965Z" fill="white"/>
<path d="M117.81 16.1092C116.634 18.1391 114.787 19.7366 112.559 20.6501C110.332 21.5637 107.85 21.7413 105.506 21.155C103.131 20.4969 101.05 19.1043 99.5876 17.1943C98.1255 15.2843 97.3644 12.9644 97.4231 10.5965C97.5982 5.78653 101.27 1.56587 106.045 0.713582C110.967 -0.170444 115.751 1.96935 117.876 6.00867C117.763 6.02673 117.649 6.03884 117.535 6.04494C116.589 6.04494 115.642 6.04494 114.696 6.04494C114.543 6.05613 114.389 6.03144 114.248 5.97299C114.107 5.91454 113.983 5.8241 113.887 5.70946C112.845 4.52752 111.429 3.70309 109.855 3.36113C108.07 3.02293 106.217 3.29036 104.616 4.11755C103.014 4.94474 101.763 6.28012 101.076 7.8946C99.3396 11.8659 101.417 16.7711 105.596 18.2944C108.572 19.3824 111.241 18.6752 113.503 16.5717C113.66 16.4072 113.853 16.2782 114.068 16.1943C114.284 16.1104 114.516 16.0736 114.748 16.0866C115.784 16.1319 116.769 16.1092 117.81 16.1092Z" fill="white"/>
<path d="M130 0.912964C130 1.74712 130 2.54955 130 3.34744C130 3.61038 129.825 3.60131 129.636 3.60131H125.954V21.0869H122.878V3.59678H118.841V0.912964H130Z" fill="white"/>
<path d="M95.9467 3.58319V0.917511H81.9014V3.58319H95.9467Z" fill="white"/>
<path d="M81.9014 18.4167V21.0688H95.9372V18.4167H81.9014Z" fill="white"/>
<path d="M81.9014 12.2196H93.1878V9.56299H81.9014V12.2196Z" fill="white"/>
</svg>
