<svg width="111" height="114" viewBox="0 0 111 114" fill="none" xmlns="http://www.w3.org/2000/svg">
<g clip-path="url(#clip0_16_1138)">
<path d="M32.92 66.3C32.81 66.3 32.71 66.27 32.62 66.2C32.48 66.09 32.4 65.92 32.42 65.74L32.81 62.45L30.05 62.18C29.78 62.15 29.58 61.92 29.6 61.64L30.51 49.79C30.52 49.66 30.58 49.53 30.68 49.45C30.77 49.37 30.89 49.33 31 49.33C31.01 49.33 54.49 51.33 54.49 51.33C54.76 51.35 54.97 51.59 54.95 51.86L54.12 64.01C54.12 64.14 54.05 64.27 53.94 64.36C53.85 64.44 53.73 64.48 53.62 64.48C53.6 64.48 40.28 63.18 40.28 63.18L33.11 66.26C33.05 66.29 32.98 66.3 32.91 66.3H32.92Z" fill="white"/>
<path d="M31.0099 49.84L54.4499 51.84L53.6199 63.99L40.1999 62.68L32.9199 65.81L33.3699 62.01L30.0999 61.69L30.9999 49.84H31.0099ZM30.9999 48.84C30.7599 48.84 30.5299 48.92 30.3499 49.08C30.1499 49.25 30.0199 49.5 29.9999 49.77L29.0999 61.62C29.0599 62.16 29.4599 62.64 29.9999 62.69L32.2499 62.91L31.9199 65.69C31.8799 66.04 32.0299 66.4 32.3099 66.61C32.4899 66.74 32.6999 66.81 32.9099 66.81C33.0399 66.81 33.1799 66.78 33.2999 66.73L40.3499 63.7L53.5099 64.98C53.5099 64.98 53.5699 64.98 53.6099 64.98C53.8499 64.98 54.0699 64.9 54.2599 64.74C54.4699 64.57 54.5899 64.31 54.6099 64.05L55.4399 51.9C55.4799 51.36 55.0699 50.88 54.5299 50.84L31.0899 48.84C31.0899 48.84 31.0299 48.84 31.0099 48.84H30.9999Z" fill="#115850"/>
<path d="M70.6004 78.92C70.5304 78.92 70.4704 78.91 70.4004 78.88L59.5704 74.23C59.5704 74.23 39.4904 76.19 39.4804 76.19C39.3604 76.19 39.2504 76.15 39.1604 76.07C39.0604 75.98 38.9904 75.86 38.9804 75.72L37.7304 57.46C37.7104 57.19 37.9104 56.95 38.1904 56.93C38.1904 56.93 73.4704 53.93 73.4804 53.93C73.6004 53.93 73.7104 53.97 73.8004 54.05C73.9004 54.14 73.9604 54.26 73.9704 54.39L75.3304 72.2C75.3504 72.47 75.1504 72.71 74.8804 72.74L70.4704 73.17L71.0904 78.37C71.1104 78.55 71.0404 78.72 70.8904 78.83C70.8004 78.9 70.7004 78.93 70.5904 78.93L70.6004 78.92Z" fill="white"/>
<path d="M73.4702 54.42L74.8302 72.23L69.9102 72.71L70.5902 78.42L59.6402 73.71L39.4702 75.68L38.2202 57.42L73.4702 54.42ZM73.4702 53.42C73.4702 53.42 73.4102 53.42 73.3902 53.42L38.1402 56.42C37.6002 56.47 37.1902 56.94 37.2302 57.48L38.4802 75.74C38.5002 76.01 38.6302 76.26 38.8302 76.43C39.0102 76.58 39.2402 76.67 39.4802 76.67C39.5102 76.67 39.5402 76.67 39.5802 76.67L59.5002 74.73L70.2202 79.33C70.3502 79.38 70.4802 79.41 70.6102 79.41C70.8202 79.41 71.0302 79.34 71.2102 79.21C71.5002 79 71.6502 78.65 71.6002 78.29L71.0402 73.6L74.9402 73.22C75.4802 73.17 75.8802 72.69 75.8402 72.15L74.4802 54.34C74.4602 54.07 74.3302 53.83 74.1302 53.65C73.9502 53.5 73.7202 53.41 73.4802 53.41L73.4702 53.42Z" fill="#115850"/>
<path d="M8.96002 14.88C12.7929 14.88 15.9 11.7729 15.9 7.94C15.9 4.10714 12.7929 1 8.96002 1C5.12716 1 2.02002 4.10714 2.02002 7.94C2.02002 11.7729 5.12716 14.88 8.96002 14.88Z" fill="white" stroke="#115850" stroke-linecap="round" stroke-linejoin="bevel"/>
<path d="M25.8702 35.36C19.2602 39.34 14.3502 43.31 10.3702 36.7C6.39021 30.09 8.53021 21.51 15.1402 17.53C21.7502 13.55 30.3302 15.69 34.3102 22.3C38.2902 28.91 32.4802 31.39 25.8702 35.36Z" fill="white" stroke="#115850" stroke-linecap="round" stroke-linejoin="bevel"/>
<path d="M103.27 14.88C107.103 14.88 110.21 11.7729 110.21 7.94C110.21 4.10714 107.103 1 103.27 1C99.4372 1 96.3301 4.10714 96.3301 7.94C96.3301 11.7729 99.4372 14.88 103.27 14.88Z" fill="white" stroke="#115850" stroke-linecap="round" stroke-linejoin="bevel"/>
<path d="M82.2902 32.38C76.4902 27.29 71.2102 23.82 76.3002 18.02C81.3902 12.22 90.2102 11.64 96.0102 16.73C101.81 21.82 102.39 30.64 97.3002 36.44C92.2102 42.24 88.0902 37.46 82.2902 32.37V32.38Z" fill="white" stroke="#115850" stroke-linecap="round" stroke-linejoin="bevel"/>
<path d="M98.3502 86.42C102.183 86.42 105.29 83.3129 105.29 79.48C105.29 75.6472 102.183 72.54 98.3502 72.54C94.5173 72.54 91.4102 75.6472 91.4102 79.48C91.4102 83.3129 94.5173 86.42 98.3502 86.42Z" fill="white" stroke="#115850" stroke-linecap="round" stroke-linejoin="bevel"/>
<path d="M81.2499 106.77C74.7599 102.6 69.0199 99.96 73.1899 93.46C77.3599 86.96 85.9999 85.08 92.4899 89.25C98.9799 93.42 100.87 102.06 96.6999 108.55C92.5299 115.04 87.7399 110.93 81.2499 106.76V106.77Z" fill="white" stroke="#115850" stroke-linecap="round" stroke-linejoin="bevel"/>
<path d="M7.73004 88.6C11.5629 88.6 14.67 85.4929 14.67 81.66C14.67 77.8271 11.5629 74.72 7.73004 74.72C3.89718 74.72 0.790039 77.8271 0.790039 81.66C0.790039 85.4929 3.89718 88.6 7.73004 88.6Z" fill="white" stroke="#115850" stroke-linecap="round" stroke-linejoin="bevel"/>
<path d="M28.5299 106.25C22.5899 111.17 18.3199 115.83 13.3999 109.88C8.47992 103.94 9.30992 95.13 15.2599 90.21C21.1999 85.29 30.0099 86.12 34.9299 92.07C39.8499 98.02 34.4699 101.33 28.5299 106.25Z" fill="white" stroke="#115850" stroke-linecap="round" stroke-linejoin="bevel"/>
<path d="M46.5202 66.92C46.4102 66.92 46.3102 66.89 46.2202 66.82C46.0802 66.71 46.0002 66.54 46.0202 66.36L46.6402 61.16L42.2302 60.73C41.9602 60.7 41.7602 60.47 41.7802 60.19L43.1402 42.38C43.1502 42.25 43.2102 42.12 43.3102 42.04C43.4002 41.96 43.5202 41.92 43.6302 41.92C43.6402 41.92 78.9202 44.92 78.9202 44.92C79.1902 44.94 79.4002 45.18 79.3802 45.45L78.1302 63.71C78.1302 63.84 78.0602 63.97 77.9502 64.06C77.8602 64.14 77.7402 64.18 77.6302 64.18C77.6102 64.18 57.5402 62.22 57.5402 62.22L46.7102 66.87C46.6502 66.9 46.5802 66.91 46.5102 66.91L46.5202 66.92Z" fill="white"/>
<path d="M43.6401 42.42L78.8901 45.42L77.6401 63.68L57.4701 61.71L46.5201 66.42L47.2001 60.71L42.2801 60.23L43.6401 42.42ZM43.6401 41.42C43.4001 41.42 43.1701 41.5 42.9901 41.66C42.7901 41.83 42.6601 42.08 42.6401 42.35L41.2801 60.16C41.2401 60.7 41.6401 61.18 42.1801 61.23L46.0801 61.61L45.5201 66.3C45.4801 66.65 45.6301 67.01 45.9101 67.22C46.0901 67.35 46.3001 67.42 46.5101 67.42C46.6401 67.42 46.7801 67.39 46.9001 67.34L57.6201 62.74L77.5401 64.68C77.5401 64.68 77.6001 64.68 77.6401 64.68C77.8801 64.68 78.1001 64.6 78.2901 64.44C78.5001 64.27 78.6201 64.01 78.6401 63.75L79.8901 45.49C79.9301 44.95 79.5201 44.47 78.9801 44.43L43.7301 41.43C43.7301 41.43 43.6701 41.43 43.6501 41.43L43.6401 41.42Z" fill="#115850"/>
<path d="M47.7402 47.12L72.1102 49.37" stroke="#115850" stroke-linecap="round" stroke-linejoin="round"/>
<path d="M47.2998 51.62L66.6798 53.56" stroke="#115850" stroke-linecap="round" stroke-linejoin="round"/>
<path d="M70.9302 54.12L74.1102 54.5" stroke="#115850" stroke-linecap="round" stroke-linejoin="round"/>
<path d="M47.0303 55.56L63.7803 57.12" stroke="#115850" stroke-linecap="round" stroke-linejoin="round"/>
</g>
<defs>
<clipPath id="clip0_16_1138">
<rect width="110.42" height="112.68" fill="white" transform="translate(0.290039 0.5)"/>
</clipPath>
</defs>
</svg>
