<svg width="54" height="24" viewBox="0 0 54 24" fill="none" xmlns="http://www.w3.org/2000/svg">
<g clip-path="url(#clip0_57_769)">
<path d="M36.7557 17.584H14.1938L24.5075 1.32321H47.0701L36.7557 17.584Z" stroke="#115850" stroke-linecap="round" stroke-linejoin="round"/>
<path d="M45.6327 17.584H39.3452L46.8906 6.15121H53.1781L45.6327 17.584Z" stroke="#115850" stroke-linecap="round" stroke-linejoin="round"/>
<path d="M0.821777 15.9877L9.43371 15.9857L9.51525 13.7709L0.903314 13.7735L0.821777 15.9877Z" stroke="#115850" stroke-linecap="round" stroke-linejoin="round"/>
<path d="M5.16895 11.078L13.7809 11.076L13.8624 8.86124L5.24982 8.86387L5.16895 11.078Z" stroke="#115850" stroke-linecap="round" stroke-linejoin="round"/>
<path d="M8.89551 6.27108L17.5074 6.2691L17.589 4.05432L8.97639 4.0563L8.89551 6.27108Z" stroke="#115850" stroke-linecap="round" stroke-linejoin="round"/>
<path d="M22.9365 9.73187L31.509 5.36356L38.3265 8.79077L30.5345 13.5437L22.9365 9.73187Z" stroke="#115850" stroke-linecap="round" stroke-linejoin="round"/>
<path d="M30.9115 10.4557C31.5775 10.4557 32.1175 9.91489 32.1175 9.24783C32.1175 8.58077 31.5775 8.04001 30.9115 8.04001C30.2455 8.04001 29.7056 8.58077 29.7056 9.24783C29.7056 9.91489 30.2455 10.4557 30.9115 10.4557Z" stroke="#115850" stroke-linecap="round" stroke-linejoin="round"/>
<path d="M17.6587 22.6768C18.8927 22.6768 19.893 21.6749 19.893 20.439C19.893 19.203 18.8927 18.2011 17.6587 18.2011C16.4247 18.2011 15.4243 19.203 15.4243 20.439C15.4243 21.6749 16.4247 22.6768 17.6587 22.6768Z" stroke="#115850" stroke-linecap="round" stroke-linejoin="round"/>
<path d="M33.146 22.6768C34.38 22.6768 35.3803 21.6749 35.3803 20.439C35.3803 19.203 34.38 18.2011 33.146 18.2011C31.912 18.2011 30.9116 19.203 30.9116 20.439C30.9116 21.6749 31.912 22.6768 33.146 22.6768Z" stroke="#115850" stroke-linecap="round" stroke-linejoin="round"/>
<path d="M42.2422 22.6768C43.4762 22.6768 44.4765 21.6749 44.4765 20.439C44.4765 19.203 43.4762 18.2011 42.2422 18.2011C41.0082 18.2011 40.0078 19.203 40.0078 20.439C40.0078 21.6749 41.0082 22.6768 42.2422 22.6768Z" stroke="#115850" stroke-linecap="round" stroke-linejoin="round"/>
</g>
<defs>
<clipPath id="clip0_57_769">
<rect width="54" height="23" fill="white" transform="translate(0 0.5)"/>
</clipPath>
</defs>
</svg>
