<svg width="32" height="32" viewBox="0 0 32 32" fill="none" xmlns="http://www.w3.org/2000/svg">
<path d="M16.0002 31.2915C24.4453 31.2915 31.2914 24.4454 31.2914 16.0003C31.2914 7.55517 24.4453 0.709061 16.0002 0.709061C7.5551 0.709061 0.708984 7.55517 0.708984 16.0003C0.708984 24.4454 7.5551 31.2915 16.0002 31.2915Z" stroke="#115850" stroke-linecap="round" stroke-linejoin="round"/>
<path d="M11.9228 30.0172L9.4025 26.3918L7.27146 23.0722L6.07252 20.6879L5.65342 17.4473L4.10561 16.9642L4.04898 17.9576L0.714355 16.4545" stroke="#115850" stroke-linecap="round" stroke-linejoin="round"/>
<path d="M7.28418 4.12369L9.62606 6.92781L11.2166 9.89688L9.62606 15.2108L7.28424 15.9567L7.91756 20.9484L12.2062 19.4639L19.1655 22.9198L15.2017 31.2921" stroke="#115850" stroke-linecap="round" stroke-linejoin="round"/>
<path d="M9.40186 2.80413L10.8864 5.7474L14.8452 9.23712L15.5049 5.7474L12.4938 1.3196" stroke="#115850" stroke-linecap="round" stroke-linejoin="round"/>
<path d="M16.0005 1.21777V2.63917L17.1551 4.03306L18.6947 3.46391L18.4747 1.21777" stroke="#115850" stroke-linecap="round" stroke-linejoin="round"/>
<path d="M19.5605 1.12872L21.2539 4.2555L21.246 6.59902C21.246 6.59902 23.7424 8.04149 23.9457 8.20856C24.149 8.37563 24.6706 10.6846 24.6706 10.6846L27.4106 10.6365L27.3976 7.73L28.2856 6.89521" stroke="#115850" stroke-linecap="round" stroke-linejoin="round"/>
<path d="M30.8321 12.2647L28.7401 12.1101L22.563 16.0003C22.563 16.0003 25.0492 20.3334 24.9201 20.5877C24.791 20.8419 27.9783 24.0922 27.9783 24.0922" stroke="#115850" stroke-linecap="round" stroke-linejoin="round"/>
</svg>
