<svg width="93" height="123" viewBox="0 0 93 123" fill="none" xmlns="http://www.w3.org/2000/svg">
<g clip-path="url(#clip0_16_1087)">
<path d="M11.5849 18.61L0.784895 111.24C0.124895 116.87 4.5249 121.81 10.1949 121.81H73.6149C78.5049 121.81 82.5949 118.09 83.0449 113.22L92.2349 15.42C92.7849 9.54001 87.8949 4.60001 82.0149 5.09001L20.2049 10.26C15.7149 10.64 12.1049 14.13 11.5849 18.61Z" fill="white" stroke="#115850" stroke-miterlimit="10"/>
<path d="M38.5449 12.69L40.0449 3.46001L59.5449 1.07001V9.53001" fill="white"/>
<path d="M38.5449 12.69L40.0449 3.46001L59.5449 1.07001V9.53001" stroke="#115850" stroke-miterlimit="10" stroke-linecap="round"/>
<path d="M42.2949 8.44L55.6749 6.88V4.44L42.6749 5.75L42.2949 8.44Z" fill="white" stroke="#115850" stroke-miterlimit="10" stroke-linecap="round"/>
<path d="M69.8553 99.5C69.8553 99.5 69.2553 103.51 67.4253 105.88C65.1753 108.79 62.8353 110.57 62.8353 110.57H8.63525C13.4253 110.38 15.2253 98.31 15.2253 98.31L23.5453 19.62L79.7253 14.38L69.8553 99.5Z" fill="white" stroke="#115850" stroke-linecap="round" stroke-linejoin="round"/>
<path d="M37.2953 14.38L32.6353 16.25L32.1753 21.03L65.4553 17.71L65.7053 12.69L60.5753 10.91" fill="white"/>
<path d="M37.2953 14.38L32.6353 16.25L32.1753 21.03L65.4553 17.71L65.7053 12.69L60.5753 10.91" stroke="#115850" stroke-miterlimit="10" stroke-linecap="round"/>
<path d="M27.2852 28.49L69.8452 25.11" stroke="#115850" stroke-miterlimit="10" stroke-linecap="round"/>
<path d="M24.2051 57.25L66.7651 53.88" stroke="#115850" stroke-miterlimit="10" stroke-linecap="round"/>
<path d="M26.4849 36.03L48.5649 34.35" stroke="#115850" stroke-miterlimit="10" stroke-linecap="round"/>
<path d="M57.4849 33.5L70.8849 32.57" stroke="#115850" stroke-miterlimit="10" stroke-linecap="round"/>
<path d="M25.7949 42.6L39.9549 41.85" stroke="#115850" stroke-miterlimit="10" stroke-linecap="round"/>
<path d="M46.9849 41.85L61.7049 41" stroke="#115850" stroke-miterlimit="10" stroke-linecap="round"/>
<path d="M23.4653 65.03L37.6153 64.28" stroke="#115850" stroke-miterlimit="10" stroke-linecap="round"/>
<path d="M44.6553 64.28L59.3653 63.43" stroke="#115850" stroke-miterlimit="10" stroke-linecap="round"/>
<path d="M26.6149 97.98C26.6149 97.98 26.1749 96.71 24.5749 96.71C23.3749 96.71 22.3049 97.27 22.0249 99.13C21.7449 100.99 23.0549 102.15 24.4349 102.29C25.9649 102.45 26.4049 101.23 26.4049 101.23" fill="white"/>
<path d="M26.6149 97.98C26.6149 97.98 26.1749 96.71 24.5749 96.71C23.3749 96.71 22.3049 97.27 22.0249 99.13C21.7449 100.99 23.0549 102.15 24.4349 102.29C25.9649 102.45 26.4049 101.23 26.4049 101.23" stroke="#115850" stroke-miterlimit="10" stroke-linecap="round"/>
<path d="M53.7951 97.9C53.7951 97.9 53.3551 96.63 51.7551 96.63C50.5551 96.63 49.4851 97.19 49.2051 99.05C48.9251 100.91 50.2351 102.07 51.6151 102.21C53.1451 102.37 53.5851 101.15 53.5851 101.15" fill="white"/>
<path d="M53.7951 97.9C53.7951 97.9 53.3551 96.63 51.7551 96.63C50.5551 96.63 49.4851 97.19 49.2051 99.05C48.9251 100.91 50.2351 102.07 51.6151 102.21C53.1451 102.37 53.5851 101.15 53.5851 101.15" stroke="#115850" stroke-miterlimit="10" stroke-linecap="round"/>
<path d="M27.9248 102.45L30.0548 96.53L31.6448 102.45" fill="white"/>
<path d="M27.9248 102.45L30.0548 96.53L31.6448 102.45" stroke="#115850" stroke-linecap="round" stroke-linejoin="round"/>
<path d="M29.0151 100.44H31.0851" stroke="#115850" stroke-linecap="round" stroke-linejoin="round"/>
<path d="M39.1948 102.3V96.7L42.4048 102.2L42.6148 96.62" fill="white"/>
<path d="M39.1948 102.3V96.7L42.4048 102.2L42.6148 96.62" stroke="#115850" stroke-linecap="round" stroke-linejoin="round"/>
<path d="M33.7051 102.45V96.85L36.9251 102.35L37.1251 96.77" fill="white"/>
<path d="M33.7051 102.45V96.85L36.9251 102.35L37.1251 96.77" stroke="#115850" stroke-linecap="round" stroke-linejoin="round"/>
<path d="M44.6349 96.71L44.5249 102.2H47.2549" fill="white"/>
<path d="M44.6349 96.71L44.5249 102.2H47.2549" stroke="#115850" stroke-linecap="round" stroke-linejoin="round"/>
<path d="M44.6348 96.71H47.4448" stroke="#115850" stroke-linecap="round" stroke-linejoin="round"/>
<path d="M44.605 99.3H46.905" stroke="#115850" stroke-linecap="round" stroke-linejoin="round"/>
<path d="M55.1548 96.53H59.1348" stroke="#115850" stroke-miterlimit="10" stroke-linecap="round"/>
<path d="M57.1449 96.77L57.0049 102.23" stroke="#115850" stroke-miterlimit="10" stroke-linecap="round"/>
</g>
<defs>
<clipPath id="clip0_16_1087">
<rect width="92.55" height="121.82" fill="white" transform="translate(0.225098 0.5)"/>
</clipPath>
</defs>
</svg>
