<svg width="25" height="25" viewBox="0 0 25 25" fill="none" xmlns="http://www.w3.org/2000/svg">
<path d="M19.1667 0.869141H5.83333C2.88667 0.869141 0.5 3.25581 0.5 6.20247V19.5358C0.5 22.4825 2.88667 24.8691 5.83333 24.8691H19.1667C22.1133 24.8691 24.5 22.4825 24.5 19.5358V6.20247C24.5 3.25581 22.1133 0.869141 19.1667 0.869141ZM19.2333 9.54914V10.0025C19.2333 14.3491 15.9133 19.3758 9.86 19.3758C8.03333 19.3758 6.31333 18.8025 4.83333 17.8958H5.63333C7.11333 17.8958 8.60667 17.3225 9.75333 16.5225C8.27333 16.5225 7.12667 15.4958 6.67333 14.2425C6.9 14.2425 7.12667 14.3625 7.24667 14.3625C7.59333 14.3625 7.82 14.3625 8.16667 14.2425C6.68667 13.8958 5.54 12.6425 5.54 11.0425C5.99333 11.2691 6.46 11.3891 7.02 11.4958C6.1 10.6958 5.54 9.77581 5.54 8.64247C5.54 8.06914 5.66 7.49581 5.99333 7.04247C7.59333 8.98914 9.99333 10.3625 12.74 10.4691C12.74 10.2425 12.62 10.0158 12.62 9.66914C12.62 7.84247 14.1 6.34914 15.94 6.34914C16.86 6.34914 17.7667 6.69581 18.34 7.37581C19.14 7.25581 19.82 6.92247 20.3933 6.57581C20.1667 7.37581 19.5933 7.94914 18.9133 8.40247C19.5933 8.28247 20.1667 8.17581 20.86 7.82914C20.4067 8.52247 19.8333 9.08247 19.26 9.54914H19.2333Z" fill="white"/>
</svg>
