<svg width="33" height="34" viewBox="0 0 33 34" fill="none" xmlns="http://www.w3.org/2000/svg">
<g clip-path="url(#clip0_16_1184)">
<path d="M4.41699 7.74445L19.223 9.24103L31.4426 20.5889L20.6324 32.9974L6.42212 21.388L4.41699 7.74445Z" stroke="white" stroke-miterlimit="10"/>
<path d="M9.1537 13.5855C10.0204 13.5855 10.7229 12.8829 10.7229 12.0163C10.7229 11.1496 10.0204 10.447 9.1537 10.447C8.28704 10.447 7.58447 11.1496 7.58447 12.0163C7.58447 12.8829 8.28704 13.5855 9.1537 13.5855Z" stroke="white" stroke-miterlimit="10"/>
<path d="M4.0973 0.726501C4.0973 0.726501 0.101575 0.726501 0.799011 3.38548C1.38021 5.59402 4.0973 4.5624 5.52123 4.43163C6.94517 4.30086 10.2725 4.1265 9.15371 10.8539" stroke="white" stroke-miterlimit="10"/>
<path d="M22.3032 19.0487C22.3032 19.0487 21.2861 17.247 20.8211 16.8838C20.3562 16.5205 19.1938 15.8086 18.104 16.7094C17.0143 17.6103 17.1741 18.9034 18.1476 19.5863C20.4579 21.1992 20.4143 22.7248 19.7169 23.7274C19.063 24.6573 17.1741 24.4393 15.6485 22.7974C14.9365 22.0419 14.457 20.8504 14.457 20.8504" stroke="white" stroke-miterlimit="10" stroke-linecap="round"/>
<path d="M22.6379 15.6051L14.9951 24.5701" stroke="white" stroke-miterlimit="10" stroke-linecap="round"/>
</g>
<defs>
<clipPath id="clip0_16_1184">
<rect width="32.4453" height="34" fill="white"/>
</clipPath>
</defs>
</svg>
