<svg width="34" height="24" viewBox="0 0 34 24" fill="none" xmlns="http://www.w3.org/2000/svg">
<g clip-path="url(#clip0_16_1193)">
<path d="M30.2386 1.23389H3.76102C2.09592 1.23389 0.746094 2.56132 0.746094 4.19879V19.8012C0.746094 21.4387 2.09592 22.7661 3.76102 22.7661H30.2386C31.9037 22.7661 33.2536 21.4387 33.2536 19.8012V4.19879C33.2536 2.56132 31.9037 1.23389 30.2386 1.23389Z" stroke="white" stroke-miterlimit="10" stroke-linecap="round"/>
<path d="M13.4627 10.8038C13.4627 10.8038 13.1194 8.05902 14.7164 6.19495C15.791 4.93267 17.5671 5.07945 18.7612 6.32705C19.5074 7.10497 20.0298 9.24792 18.2239 10.3487C16.2537 11.5523 13.4627 10.8038 13.4627 10.8038V10.8038Z" stroke="white" stroke-miterlimit="10" stroke-linecap="round"/>
<path d="M12.0748 10.8038C12.0748 10.8038 12.4181 8.05902 10.8211 6.19495C9.74648 4.93267 7.97036 5.07945 6.77633 6.32705C6.03006 7.10497 5.50768 9.24792 7.31365 10.3487C9.28379 11.5523 12.0748 10.8038 12.0748 10.8038V10.8038Z" stroke="white" stroke-miterlimit="10" stroke-linecap="round"/>
<path d="M13.4627 12.5798C13.4627 12.5798 13.1194 15.3245 14.7164 17.1886C15.791 18.4509 17.5671 18.3041 18.7612 17.0565C19.5074 16.2786 20.0298 14.1356 18.2239 13.0348C16.2537 11.8312 13.4627 12.5798 13.4627 12.5798V12.5798Z" stroke="white" stroke-miterlimit="10" stroke-linecap="round"/>
<path d="M12.0748 12.5798C12.0748 12.5798 12.4181 15.3245 10.8211 17.1886C9.74648 18.4509 7.97036 18.3041 6.77633 17.0565C6.03006 16.2786 5.50768 14.1356 7.31365 13.0348C9.28379 11.8312 12.0748 12.5798 12.0748 12.5798Z" stroke="white" stroke-miterlimit="10" stroke-linecap="round"/>
<path d="M13.4327 11.112C13.4327 11.112 12.4625 10.8184 12.2685 10.8038C12.0745 10.7891 9.85059 11.3909 9.85059 11.3909L12.4327 12.9614L14.776 12.3743C14.776 12.3743 14.8207 11.3762 14.776 11.3322C14.7312 11.2881 13.4327 11.112 13.4327 11.112Z" fill="white"/>
<path d="M4.19385 11.8899H0.746094" stroke="white" stroke-miterlimit="10" stroke-linecap="round"/>
<path d="M32.9851 11.8899H21.209" stroke="white" stroke-miterlimit="10" stroke-linecap="round"/>
<path d="M12.6567 4.14008V1.23389" stroke="white" stroke-miterlimit="10" stroke-linecap="round"/>
<path d="M12.6567 22.1937V19.3755" stroke="white" stroke-miterlimit="10" stroke-linecap="round"/>
</g>
<defs>
<clipPath id="clip0_16_1193">
<rect width="34" height="23" fill="white" transform="translate(0 0.5)"/>
</clipPath>
</defs>
</svg>
